<?xml version="1.0" encoding="UTF-8" standalone="no"?>
<svg width="125px" height="47px" viewBox="0 0 125 47" version="1.1" xmlns="http://www.w3.org/2000/svg" xmlns:xlink="http://www.w3.org/1999/xlink" xmlns:sketch="http://www.bohemiancoding.com/sketch/ns">
    <!-- Generator: Sketch 3.3.3 (12072) - http://www.bohemiancoding.com/sketch -->
    <title>Cocur</title>
    <desc>Created with Sketch.</desc>
    <defs></defs>
    <g id="Page-1" stroke="none" stroke-width="1" fill="none" fill-rule="evenodd" sketch:type="MSPage">
        <g id="full-trans" sketch:type="MSLayerGroup" transform="translate(-63.000000, -54.000000)">
            <rect id="Rectangle-1" sketch:type="MSShapeGroup" x="0" y="0" width="407" height="218"></rect>
            <path d="M70.48818,100.508013 C67.8127369,100.508013 65.9442015,99.9559459 64.8825177,98.8517947 C63.8208339,97.7476436 63.29,95.9215749 63.29,93.3735339 L63.29,59.994363 C63.29,58.1682669 63.8102172,56.7668653 64.8506673,55.7901163 C65.8911174,54.8133672 67.1757355,54.325 68.7045602,54.325 L80.8713953,54.325 L82.463913,62.9245956 L73.6095147,62.9245956 C73.0574391,62.9245956 72.7814055,63.2218625 72.7814055,63.8164055 L72.7814055,91.0166077 C72.7814055,91.6111506 73.0574391,91.9084176 73.6095147,91.9084176 L82.463913,91.9084176 L80.8076946,100.508013 L70.48818,100.508013 Z M95.777361,62.4149899 C95.2252854,62.4149899 94.9492518,62.7122569 94.9492518,63.3067998 L94.9492518,91.4625126 C94.9492518,91.8022514 95.0023352,92.0464351 95.1085035,92.1950708 C95.2146719,92.3437065 95.4588555,92.4180233 95.8410617,92.4180233 L99.3446006,92.4180233 C99.7268068,92.4180233 99.9709904,92.3437065 100.077159,92.1950708 C100.183327,92.0464351 100.236411,91.8022514 100.236411,91.4625126 L100.236411,63.3067998 C100.236411,62.7122569 99.9603769,62.4149899 99.4083013,62.4149899 L95.777361,62.4149899 Z M109.600415,93.9468402 C109.600415,94.8386546 109.494248,95.6773722 109.281911,96.4630182 C109.069574,97.2486642 108.708607,97.9387483 108.198999,98.5332912 C107.689391,99.1278341 107.009923,99.6055846 106.160576,99.9665571 C105.311229,100.32753 104.249561,100.508013 102.975541,100.508013 L92.273822,100.508013 C90.9998015,100.508013 89.9381337,100.32753 89.0887867,99.9665571 C88.2394396,99.6055846 87.5599722,99.1278341 87.050364,98.5332912 C86.5407558,97.9387483 86.1797887,97.2486642 85.967452,96.4630182 C85.7551152,95.6773722 85.6489484,94.8386546 85.6489484,93.9468402 L85.6489484,60.3128665 C85.6489484,58.4867704 86.1479323,57.0322855 87.1459151,55.949368 C88.1438978,54.8664506 89.7257829,54.325 91.8916178,54.325 L103.357745,54.325 C105.52358,54.325 107.105465,54.8664506 108.103448,55.949368 C109.101431,57.0322855 109.600415,58.4867704 109.600415,60.3128665 L109.600415,93.9468402 Z M120.620637,100.508013 C117.945194,100.508013 116.076658,99.9559459 115.014975,98.8517947 C113.953291,97.7476436 113.422457,95.9215749 113.422457,93.3735339 L113.422457,59.994363 C113.422457,58.1682669 113.942674,56.7668653 114.983124,55.7901163 C116.023574,54.8133672 117.308193,54.325 118.837017,54.325 L131.003852,54.325 L132.59637,62.9245956 L123.741972,62.9245956 C123.189896,62.9245956 122.913862,63.2218625 122.913862,63.8164055 L122.913862,91.0166077 C122.913862,91.6111506 123.189896,91.9084176 123.741972,91.9084176 L132.59637,91.9084176 L130.940152,100.508013 L120.620637,100.508013 Z M142.979585,100.508013 C140.304142,100.508013 138.435607,99.9559459 137.373923,98.8517947 C136.312239,97.7476436 135.781405,95.9215749 135.781405,93.3735339 L135.781405,54.325 L145.20911,54.325 L145.20911,91.3988119 C145.20911,91.7385507 145.262194,91.993351 145.368362,92.1632204 C145.47453,92.3330898 145.718714,92.4180233 146.10092,92.4180233 L149.349656,92.4180233 C149.731862,92.4180233 149.976046,92.3330898 150.082214,92.1632204 C150.188383,91.993351 150.241466,91.7385507 150.241466,91.3988119 L150.241466,54.325 L159.669171,54.325 L159.669171,93.3735339 C159.669171,95.9215749 159.138337,97.7476436 158.076653,98.8517947 C157.014969,99.9559459 155.146434,100.508013 152.470991,100.508013 L142.979585,100.508013 Z M172.727816,62.4149899 L172.727816,78.3401668 L177.250566,78.3401668 C177.845109,78.3401668 178.142376,78.0216665 178.142376,77.3846562 L178.142376,63.3705005 C178.142376,62.7334902 177.845109,62.4149899 177.250566,62.4149899 L172.727816,62.4149899 Z M187.251577,81.7163043 C187.251577,82.7355208 186.901227,83.6697885 186.200516,84.5191355 C185.499804,85.3684825 184.469987,85.7931496 183.111031,85.7931496 L187.952285,100.508013 L178.397179,100.508013 L173.938129,85.7931496 L172.727816,85.7931496 L172.727816,100.508013 L163.491213,100.508013 L163.491213,54.325 L181.008908,54.325 C183.174743,54.325 184.756628,54.8664506 185.754611,55.949368 C186.752593,57.0322855 187.251577,58.4867704 187.251577,60.3128665 L187.251577,81.7163043 Z" id="Cocur" fill="#7ED321" sketch:type="MSShapeGroup"></path>
        </g>
    </g>
</svg>